<svg xmlns:xlink="http://www.w3.org/1999/xlink" xmlns="http://www.w3.org/2000/svg" viewBox="0 0 350 116.06592677220563" preserveAspectRatio="xMidYMid meet" class="css-ata32y" id="hhaggbgb" width="350"  height="116.06592677220563" ><defs id="SvgjsDefs2189"></defs><g id="SvgjsG2190" featurekey="mugSzh-0" transform="matrix(0.7783651569474239,0,0,0.7783651569474239,97.13851161790828,-58.610910570432715)" fill="#111111"><path xmlns="http://www.w3.org/2000/svg" d="M189,106c-3.9-2.1-7.7-4.4-11.5-6.7v-3.7c0-2.3-0.8-4.7-2.4-7c-0.1-0.2-1.5-0.2-1.6,0c-1.5,2.3-2.3,4.5-2.3,6.8  c0,0-0.1-0.1-0.1-0.1c-6-3.7-12-7.3-18.3-10.6c-6.3-3.3-12.8-6.3-20.1-8.2c-0.9-0.2-1.8-0.4-2.8-0.6l-1.4-0.3  c-0.5-0.1-1-0.1-1.4-0.1c-1-0.1-1.9-0.2-2.9-0.2l-2.9,0.2c-1,0-1.9,0.2-2.8,0.4c-0.9,0.2-1.9,0.3-2.8,0.5c-1.8,0.5-3.6,0.9-5.3,1.5  c-8.5,2.9-16.2,6.9-23.8,10.9c-7.6,4.1-15,8.5-22.5,12.4c-3.5,1.9-5.8,4.4-5.2,6.1c0.7,1.6,4.4,1.5,8.1-0.4c0.9-0.5,1.9-1,2.8-1.5v4  c0,3,0.4,6,1.3,8.9H68c-19,0-38.1,0.8-57,2.4c-1.2,0.1-1.2,1.5,0,1.6c18.9,1.6,38,2.4,57,2.4h34.8c2.8,0,5-1.4,5-3.2  c0-1.8-2.2-3.2-5-3.2h-28c0.9-3,1.3-6,1.3-8.9v-7.3c0-0.1,0-0.1-0.1-0.2c4.5-2.5,9-5,13.5-7.5c7.5-4,15-7.9,22.8-10.5  c1.6-0.6,3.2-1,4.8-1.4c0.8-0.2,1.6-0.3,2.4-0.5c0.8-0.1,1.6-0.4,2.4-0.4l2.3-0.2c0.8,0,1.6,0.1,2.3,0.1c0.4,0,0.8,0,1.2,0.1  l1.2,0.2c0.8,0.1,1.6,0.2,2.4,0.4c6.4,1.5,12.9,4.1,19.1,6.9c6.3,2.9,12.5,6.1,18.8,9.2c0.6,0.3,1.3,0.6,1.9,1v0.4  c0,0.2,0.8,0.5,1.9,0.6c5,2.5,10,5,15.3,7.1C190.1,108.1,190.6,106.8,189,106z" fill="#111111"></path></g><g id="SvgjsG2191" featurekey="PPkF4s-0" transform="matrix(2.606105674212931,0,0,2.606105674212931,-4.01340201752886,45.95979208338139)" fill="#111111"><path d="M4.72 11.34 l6.98 0 l0 2.74 l-6.98 0 l0 5.92 l-3.18 0 l0 -14.62 l11.08 0 l0 2.74 l-7.9 0 l0 3.22 z M14.399999999999999 15.54 l0 -6.5 l3.02 0 l0 6.5 q0 1.18 0.59 1.69 t1.55 0.51 q0.84 0 1.5 -0.65 t0.6 -2.23 l0 -5.82 l3 0 l0 10.96 l-3 0 l0 -0.94 q-0.54 0.56 -1.31 0.87 t-1.63 0.31 q-4.32 0 -4.32 -4.7 z M32.82 11.87 q-0.86 0.21 -1.58 0.99 t-0.72 2.28 l0 4.86 l-2.98 0 l0 -11 l2.98 0 l0 1.46 q0.74 -0.98 1.81 -1.33 t1.95 -0.33 l0 2.92 q-0.6 -0.06 -1.46 0.15 z M45.269999999999996 10.02 q1.03 1.22 1.03 3.48 l0 6.5 l-3.06 0 l0 -6.5 q0 -2.22 -2.12 -2.22 q-0.82 0 -1.48 0.65 t-0.62 2.25 l0 5.82 l-2.98 0 l0 -11 l2.98 0 l0 0.98 q0.54 -0.54 1.36 -0.86 t1.58 -0.32 q2.28 0 3.31 1.22 z M52.02 7.369999999999999 q-0.48 0.47 -1.16 0.47 q-0.7 0 -1.19 -0.47 t-0.49 -1.15 q0 -0.66 0.49 -1.13 t1.19 -0.47 q0.68 0 1.16 0.47 t0.48 1.13 q0 0.68 -0.48 1.15 z M49.36000000000001 9.02 l3 0 l0 10.98 l-3 0 l0 -10.98 z M59.02 16.08 q0 0.7 0.24 1.17 t1.12 0.47 q0.4 0 0.76 -0.04 l0 2.52 q-0.72 0.08 -1.34 0.08 q-1.28 0 -2.07 -0.21 t-1.23 -0.81 t-0.44 -1.72 l0 -6.1 l-1.34 0 l0 -2.62 l1.34 0 l0 -2.94 l2.96 0 l0 2.94 l2.2 0 l0 2.62 l-2.2 0 l0 4.64 z M63.5 15.54 l0 -6.5 l3.02 0 l0 6.5 q0 1.18 0.59 1.69 t1.55 0.51 q0.84 0 1.5 -0.65 t0.6 -2.23 l0 -5.82 l3 0 l0 10.96 l-3 0 l0 -0.94 q-0.54 0.56 -1.31 0.87 t-1.63 0.31 q-4.32 0 -4.32 -4.7 z M81.92 11.87 q-0.86 0.21 -1.58 0.99 t-0.72 2.28 l0 4.86 l-2.98 0 l0 -11 l2.98 0 l0 1.46 q0.74 -0.98 1.81 -1.33 t1.95 -0.33 l0 2.92 q-0.6 -0.06 -1.46 0.15 z M87.65 19.74 q-1.37 -0.54 -2.35 -1.83 t-0.98 -3.37 t0.99 -3.36 t2.37 -1.82 t2.62 -0.54 q1.44 0 2.74 0.64 t2.13 1.88 t0.87 2.94 q0 0.52 -0.02 0.9 t-0.04 0.48 l-8.68 0 q0.24 1.16 1.2 1.58 t1.8 0.42 q1.08 0 1.72 -0.39 t1.1 -0.89 l2.32 1.34 q-1.88 2.56 -5.14 2.56 q-1.28 0 -2.65 -0.54 z M88.26 12.05 q-0.78 0.61 -0.88 1.49 l5.5 0 q-0.06 -0.52 -0.4 -1 t-0.91 -0.79 t-1.29 -0.31 q-1.24 0 -2.02 0.61 z M101.80000000000001 11.34 l6.98 0 l0 2.74 l-6.98 0 l0 5.92 l-3.18 0 l0 -14.62 l11.08 0 l0 2.74 l-7.9 0 l0 3.22 z M119.54 18.9 q-0.38 0.52 -1.31 0.93 t-2.03 0.41 q-1.7 0 -2.95 -0.76 t-1.91 -2.07 t-0.66 -2.91 t0.66 -2.91 t1.91 -2.07 t2.95 -0.76 q1.14 0 2.01 0.39 t1.33 0.99 l0 -1.14 l2.96 0 l0 11 l-2.96 0 l0 -1.1 z M118.84 12.25 q-0.82 -0.87 -2.2 -0.87 q-1.4 0 -2.21 0.87 t-0.81 2.25 q0 1.34 0.83 2.22 t2.19 0.88 q1.4 0 2.21 -0.83 t0.81 -2.27 q0 -1.38 -0.82 -2.25 z M124.06000000000002 9.04 l3.32 0 l2.56 5.38 l2.56 -5.38 l3.34 0 l-5.9 11.44 z" fill="#111111"></path></g><g id="SvgjsG2192" featurekey="uwAHB0-0" transform="matrix(0.5772815198740016,0,0,0.5772815198740016,34.34189907560172,104.5202963747256)" fill="#111111"><path d="M1.14 7.76 l9.1 0 l0 2.78 l-6.1 0 l0 1.96 l4.9 0 l0 2.78 l-4.9 0 l0 1.94 l6.1 0 l0 2.78 l-9.1 0 l0 -12.24 z M26.264000000000003 16.32 l-2.5 3.68 l-3.5 0 l4.26 -6.26 l-4.06 -5.98 l3.5 0 l2.3 3.4 l2.3 -3.4 l3.5 0 l-4.04 5.98 l4.24 6.26 l-3.5 0 z M42.868 20 l0 -12.24 l5.8 0 c2.28 0 4.22 1.72 4.22 4.02 c0 2.32 -2 4.02 -4.22 4.02 l-2.8 0 l0 4.2 l-3 0 z M48.668 10.54 l-2.8 0 l0 2.48 l2.8 0 c0.7 0 1.22 -0.54 1.22 -1.24 s-0.52 -1.24 -1.22 -1.24 z M63.952 7.76 l9.1 0 l0 2.78 l-6.1 0 l0 1.96 l4.9 0 l0 2.78 l-4.9 0 l0 1.94 l6.1 0 l0 2.78 l-9.1 0 l0 -12.24 z M87.316 10.58 l0 2.92 l2.8 0 c0.92 0 1.46 -0.54 1.46 -1.46 s-0.54 -1.46 -1.46 -1.46 l-2.8 0 z M91.856 15.48 c0.56 0.76 1.12 1.52 1.7 2.26 c0.56 0.74 1.12 1.5 1.68 2.26 l-3.66 0 c-0.72 -0.96 -1.42 -1.92 -2.12 -2.88 c-0.7 -0.94 -1.42 -1.9 -2.14 -2.86 l0 5.74 l-3 0 l0 -12.24 l5.8 0 c2.28 0 4.22 1.74 4.22 4.04 c0 1.62 -1 3.04 -2.48 3.68 z M105.34 7.76 l10.2 0 l0 2.78 l-3.6 0 l0 9.46 l-3 0 l0 -9.46 l-3.6 0 l0 -2.78 z M148.208 17.52 l-4.5 0 l-0.88 2.48 l-3.26 0 l4.9 -12.24 l3 0 l4.9 12.24 l-3.28 0 z M144.688 14.74 l2.54 0 l-1.26 -3.56 z M170.732 17.52 l-4.5 0 l-0.88 2.48 l-3.26 0 l4.9 -12.24 l3 0 l4.9 12.24 l-3.28 0 z M167.212 14.74 l2.54 0 l-1.26 -3.56 z M185.676 20 l0 -12.24 l5.8 0 c2.28 0 4.22 1.72 4.22 4.02 c0 2.32 -2 4.02 -4.22 4.02 l-2.8 0 l0 4.2 l-3 0 z M191.476 10.54 l-2.8 0 l0 2.48 l2.8 0 c0.7 0 1.22 -0.54 1.22 -1.24 s-0.52 -1.24 -1.22 -1.24 z M206.76 7.76 l3 0 l0 5.74 l3.94 -5.74 l3.72 0 l-4.28 6.12 l4.44 6.12 l-3.68 0 l-4.14 -5.76 l0 5.76 l-3 0 l0 -12.24 z M227.98399999999998 7.76 l9.1 0 l0 2.78 l-6.1 0 l0 1.96 l4.9 0 l0 2.78 l-4.9 0 l0 1.94 l6.1 0 l0 2.78 l-9.1 0 l0 -12.24 z M266.612 20 l-4.3 0 l0 -12.24 l4.3 0 c3.74 0 6.3 2.44 6.3 6.12 c0 3.78 -2.7 6.12 -6.3 6.12 z M265.312 10.54 l0 6.68 l1.3 0 c2.12 0 3.3 -1.34 3.3 -3.34 c0 -0.46 -0.06 -0.88 -0.18 -1.3 c-0.52 -1.46 -1.66 -2.04 -3.12 -2.04 l-1.3 0 z M291.91600000000005 17.52 l-4.5 0 l-0.88 2.48 l-3.26 0 l4.9 -12.24 l3 0 l4.9 12.24 l-3.28 0 z M288.396 14.74 l2.54 0 l-1.26 -3.56 z M309.86 10.58 l0 2.92 l2.8 0 c0.92 0 1.46 -0.54 1.46 -1.46 s-0.54 -1.46 -1.46 -1.46 l-2.8 0 z M314.40000000000003 15.48 c0.56 0.76 1.12 1.52 1.7 2.26 c0.56 0.74 1.12 1.5 1.68 2.26 l-3.66 0 c-0.72 -0.96 -1.42 -1.92 -2.12 -2.88 c-0.7 -0.94 -1.42 -1.9 -2.14 -2.86 l0 5.74 l-3 0 l0 -12.24 l5.8 0 c2.28 0 4.22 1.74 4.22 4.04 c0 1.62 -1 3.04 -2.48 3.68 z M341.36400000000003 7.76 l2.92 0 l-2.26 12.24 l-4.44 0 l-1.6 -7.14 l-1.7 7.14 l-4.68 0 l-1.98 -12.24 l3.06 0 l1.38 9.16 l1.8 -7.14 l4.26 0 l1.72 7.14 z M362.72800000000007 17.52 l-4.5 0 l-0.88 2.48 l-3.26 0 l4.9 -12.24 l3 0 l4.9 12.24 l-3.28 0 z M359.208 14.74 l2.54 0 l-1.26 -3.56 z M380.53200000000004 17.28 l6.58 0 l0 2.72 l-10.2 0 l0 -2.72 l6.16 -6.8 l-5.76 0 l0 -2.72 l9.4 0 l0 2.72 z M398.196 7.76 l9.1 0 l0 2.78 l-6.1 0 l0 1.96 l4.9 0 l0 2.78 l-4.9 0 l0 1.94 l6.1 0 l0 2.78 l-9.1 0 l0 -12.24 z M432.524 20 l0 -12.24 l5.8 0 c2.28 0 4.22 1.72 4.22 4.02 c0 2.32 -2 4.02 -4.22 4.02 l-2.8 0 l0 4.2 l-3 0 z M438.324 10.54 l-2.8 0 l0 2.48 l2.8 0 c0.7 0 1.22 -0.54 1.22 -1.24 s-0.52 -1.24 -1.22 -1.24 z M460.30800000000005 17.52 l-4.5 0 l-0.88 2.48 l-3.26 0 l4.9 -12.24 l3 0 l4.9 12.24 l-3.28 0 z M456.788 14.74 l2.54 0 l-1.26 -3.56 z M478.252 10.58 l0 2.92 l2.8 0 c0.92 0 1.46 -0.54 1.46 -1.46 s-0.54 -1.46 -1.46 -1.46 l-2.8 0 z M482.79200000000003 15.48 c0.56 0.76 1.12 1.52 1.7 2.26 c0.56 0.74 1.12 1.5 1.68 2.26 l-3.66 0 c-0.72 -0.96 -1.42 -1.92 -2.12 -2.88 c-0.7 -0.94 -1.42 -1.9 -2.14 -2.86 l0 5.74 l-3 0 l0 -12.24 l5.8 0 c2.28 0 4.22 1.74 4.22 4.04 c0 1.62 -1 3.04 -2.48 3.68 z" fill="#111111"></path></g></svg>